<?xml version="1.0" encoding="UTF-8" standalone="no"?>
<!-- Uploaded to: SVG Repo, www.svgrepo.com, Generator: SVG Repo Mixer Tools -->

<svg
   fill="#000000"
   version="1.1"
   id="Capa_1"
   viewBox="0 -120 380 190"
   xml:space="preserve"
   sodipodi:docname="f1-car-svgrepo-fixed-withLabels.svg"
   inkscape:version="1.3.2 (091e20e, 2023-11-25, custom)"
   xmlns:inkscape="http://www.inkscape.org/namespaces/inkscape"
   xmlns:sodipodi="http://sodipodi.sourceforge.net/DTD/sodipodi-0.dtd"
   xmlns="http://www.w3.org/2000/svg"
   xmlns:svg="http://www.w3.org/2000/svg"><defs
   id="defs1" /><sodipodi:namedview
   id="namedview1"
   pagecolor="#ffffff"
   bordercolor="#999999"
   borderopacity="1"
   inkscape:showpageshadow="2"
   inkscape:pageopacity="0"
   inkscape:pagecheckerboard="0"
   inkscape:deskcolor="#d1d1d1"
   showgrid="false"
   inkscape:zoom="1.9424999"
   inkscape:cx="36.808238"
   inkscape:cy="156.24196"
   inkscape:window-width="1920"
   inkscape:window-height="991"
   inkscape:window-x="-9"
   inkscape:window-y="-9"
   inkscape:window-maximized="1"
   inkscape:current-layer="Capa_1" />
<path
   d="m 305.96279,8.08356 -7.924,-6.818 -47.161,17.281 c -4.319,1.583 -8.773,2.958 -13.238,4.087 -19.622,4.963 -30.724,6.973 -54.425,5.347 l -3.123,-0.066 c -13.506,-0.282 -24.494,-11.5 -24.494,-25.008 v -4.92 c -12.05,-2.639 -24.27,-4.649001 -36.607,-6.006001 l -7.834,14.915001 c -13.496786,2.36745 -25.585006,0 -25.585006,0 l -6.356,-17.044001 c -0.225,0 -21.617,0.088 -21.617,0.088 V 35.25256 c 0,5.508 -4.465,9.972 -9.972,9.972 h -18.387 c -5.508,0 -9.972,-4.465 -9.972,-9.972 V -9.893441 l -0.465,0.002 c -4.784,0.021 -9.49,-1.67 -12.9200003,-5.004 -4.28,-4.16 -6.189,-10.09 -5.049,-16.162 0.419,-2.233 1.292,-4.376 2.557,-6.263 3.444,-5.134 8.9580003,-8.023 14.8840003,-8 l 0.993,0.001 v -45.143 c 0,-5.508 4.465,-9.971999 9.972,-9.971999 h 18.385 c 5.508,0 9.972,4.464999 9.972,9.971999 v 45.182 c 0,0 21.543,0.018 21.844,0.018 l 4.729741,-16.243526 c 0.528581,0.431898 24.744265,0.07012 24.986585,-0.599474 l 7.661,14.821 c 12.505,-1.326 26.73568,-3.309 38.77968,-5.925 v -4.956 c 0,-13.475 11.023,-24.728 24.494,-25.007 l 3.727,-0.077 c 23.147,-1.5 34.062,0.49 53.393,5.378 4.384,1.108 8.757,2.453 12.998,3.997 l 47.816,17.41 7.937,-6.829 h 19.93 l -13.861,11.928 1.717,0.625 c 7.59,2.764 13.211,9.076 15.294,16.636 h 9.104 v -13.752 c 0,-5.508 4.465,-9.972 9.973,-9.972 h 17.258 c 5.508,0 9.973,4.465 9.973,9.972 v 40.503 c 0,5.508001 -4.465,9.972001 -9.973,9.972001 h -17.258 c -5.508,0 -9.973,-4.465 -9.973,-9.972001 v -13.751 h -9.11 c -2.085,7.532 -7.685,13.827 -15.24,16.596001 l -1.778,0.651 13.877,11.94 z m 56.386,-18.465001 v -34.448 h -11.203 v 34.448 z m -172.312,0.607 12.23,-1.367 v -32.927 l -12.221,-1.366 c -9.809,0.03 -17.779,8.016 -17.779,17.831 0.001,9.811 7.967,17.794 17.77,17.829 z m 25.231,-2.821 30.644,-3.426 c 5.907,-0.66 10.361,-5.64 10.361,-11.583 v 0 c 0,-5.943 -4.454,-10.923 -10.361,-11.583 l -30.644,-3.426 z M 98.210784,3.58356 104.96379,-9.272441 c -3.919,-0.274 -7.847006,-0.483 -11.782006,-0.628 z m -65.943,28.641 h 12.33 v -42.229001 l -12.33,0.054 z m -17.371,-63.171001 c -0.895,0.892 -1.388,2.078 -1.388,3.341 0,1.263 0.493,2.449 1.388,3.341 0.895,0.891 2.083,1.379 3.343,1.375 l 60.249,-0.262 c 28.493006,-0.112 56.722006,3.045 84.067006,9.377 -2.099,-4.163 -3.288,-8.859 -3.288,-13.83 0,-4.975 1.191,-9.674 3.293,-13.839 -26.956,6.206 -55.183,9.299 -84.054006,9.184 l -60.265,-0.062 c -1.262,-0.004 -2.451,0.484 -3.345,1.375 z m 29.701,-56.489 h -12.33 v 42.129 l 12.33,0.013 z m 52.652161,27.775161 -3.873161,14.156839 c 3.801,-0.136 7.586006,-0.329 11.356006,-0.581 z m 136.775845,-5.608161 c -18.386,-4.649 -28.012,-6.403 -49.504,-5 l -4.16,0.092 c -6.486,0.134 -11.764,5.521 -11.764,12.01 v 1.865 c 0.196,-0.051 3.46,-0.901 3.46,-0.901 5.905,-1.546 11.976,-1.987 18.042,-1.309 l 57.257,6.402 c 12.494,1.397 21.916,11.931 21.916,24.504 0,12.572 -9.422,23.106001 -21.916,24.503001 l -57.257,6.402 c -6.066,0.678 -12.137,0.237 -18.043,-1.31 0,0 -3.262,-0.85 -3.459,-0.901 v 1.816 c 0,6.488 5.278,11.876 11.769,12.011 l 3.59,0.084 c 22.034,1.523 31.828,-0.249 50.496,-4.971 4.031,-1.02 8.054,-2.261 11.953,-3.69 l 40.529,-14.851001 v -38.157 l -41.172,-14.991 c -3.829,-1.392 -7.778,-2.607 -11.737,-3.608 z m 75.296,48.554 c 4.555,-1.669 7.615,-6.05 7.615,-10.901 0,-4.861 -3.069,-9.246 -7.637,-10.909 l -8.567,-3.119 -0.799,0.687 v 26.703 l 0.798,0.687 z"
   id="path1"
   style="stroke-width:0.292198;stroke-dasharray:none"
   sodipodi:nodetypes="ccccccsccccccsssscccccccssssccccccscccccccccccsssssssscccccccccccccccccccssccccccccccccssccccscccsccccccccccccsccccsccccscccccccccscccccc" />
<rect
   style="fill:#000000;fill-opacity:1;stroke:#000000;stroke-width:1.7709;stroke-linecap:round;stroke-linejoin:round;stroke-dasharray:none;stroke-opacity:1;paint-order:stroke fill markers;image-rendering:auto"
   id="rightFront"
   width="60"
   height="38"
   rx="8"
   ry="8"
   x="65"
   y="-99" />
 <rect
   style="fill:#000000;fill-opacity:1;stroke:#000000;stroke-width:1.7709;stroke-linecap:round;stroke-linejoin:round;stroke-dasharray:none;stroke-opacity:1;paint-order:stroke fill markers;image-rendering:auto"
   id="rightBack"
   width="60"
   height="38"
   rx="8"
   ry="8"
   x="290"
   y="-99" /><rect
   style="fill:#000000;fill-opacity:1;stroke:#000000;stroke-width:1.7709;stroke-linecap:round;stroke-linejoin:round;stroke-dasharray:none;stroke-opacity:1;paint-order:stroke fill markers;image-rendering:auto"
   id="leftFront"
   width="60"
   height="38"
   rx="8"
   ry="8"
   x="65"
   y="7" /><rect
   style="fill:#000000;fill-opacity:1;stroke:#000000;stroke-width:1.7709;stroke-linecap:round;stroke-linejoin:round;stroke-dasharray:none;stroke-opacity:1;paint-order:stroke fill markers;image-rendering:auto"
   id="leftBack"
   width="60"
   height="38"
   rx="8"
   ry="8"
   x="290"
   y="7" />
   
    <text
   id="rightFrontLabel"
   x="75"
   y="-110"
   style="fill:#000000">103 ºC</text>
    <text
   id="leftFrontLabel"
   x="75"
   y="65"
   style="fill:#000000">109 ºC</text>
    <text
   id="rightBackLabel"
   x="305"
   y="-110"
   style="fill:#000000">93 ºC</text>
    <text
   id="leftBackLabel"
   x="305"
   y="65"
   style="fill:#000000">91 ºC</text>
	</svg>
